<svg width="1668" height="2854" viewBox="0 0 1668 2854" fill="none" xmlns="http://www.w3.org/2000/svg">
<path d="M1667.36 2594.89C1667.36 2692.11 1612.09 2785.31 1518.12 2829.21C1389.04 2889.47 1235.25 2833.54 1175.1 2704.25L918.019 2153.02C901.437 2117.37 867.731 2099.59 834.133 2099.59C800.535 2099.59 766.829 2117.37 750.247 2153.02L493.169 2704.25C432.91 2833.54 279.227 2889.47 150.038 2829.21C56.072 2785.31 0.798096 2692.11 0.798096 2594.89C0.798096 2558.26 8.60147 2521.19 25.0753 2485.86L368.532 1749.2C468.35 1535.91 660.291 1459.17 834.133 1459.17C1007.97 1459.17 1199.81 1535.91 1299.63 1749.2L1643.08 2485.86C1659.56 2521.19 1667.36 2558.26 1667.36 2594.89Z" fill="#3B82F6"/>
<path d="M0.799072 259.402C0.799072 162.185 56.073 68.9782 150.039 25.0842C279.119 -35.1751 432.911 20.749 493.062 150.047L750.14 701.268C766.722 736.925 800.428 754.699 834.026 754.699C867.624 754.699 901.33 736.925 917.912 701.268L1174.99 150.047C1235.25 20.749 1388.93 -35.1751 1518.12 25.0842C1612.09 68.9782 1667.36 162.185 1667.36 259.402C1667.36 296.035 1659.56 333.101 1643.08 368.433L1299.63 1105.09C1199.81 1318.38 1007.87 1395.12 834.026 1395.12C660.184 1395.12 468.351 1318.38 368.533 1105.09L25.0762 368.433C8.60244 333.101 0.799072 296.035 0.799072 259.402Z" fill="#3B82F6"/>
</svg>
